#!OML:ASF F:\VICON\USERDATA\INSTALL\rory3\rory3.ASF
:FULLY-SPECIFIED
:DEGREES
889
root 0.170605 16.9378 17.3424 -161.255 -33.2068 -176.953
lowerback -13.1866 1.99925 2.59204
upperback -7.04949 1.60502 1.95318
thorax 0.0129372 0.456688 0.780686
lowerneck -11.6867 -0.0156661 -1.92787
upperneck 40.5652 -4.47027 1.93211
head 16.706 -3.20063 0.0523328
rclavicle -1.08085e-013 2.46493e-014
rhumerus -74.6231 41.3738 -121.903
rradius 50.4988
rwrist -45.0262
rhand 22.3314 -3.80187
rfingers 7.12502
rthumb 46.7005 -26.5989
lclavicle -1.08085e-013 2.46493e-014
lhumerus -61.1482 -19.129 100.403
lradius 41.8225
lwrist 13.7402
lhand 25.4755 19.0986
lfingers 7.12502
lthumb 49.5974 40.5302
rfemur -29.3914 2.93382 35.5443
rtibia 26.977
rfoot -42.3526 -31.485
rtoes 42.6132
lfemur -25.8321 31.8381 -23.8791
ltibia 56.3931
lfoot 36.634 37.4241
ltoes 25.9339
890
root 0.16851 16.9394 17.3393 -161.164 -33.1594 -177.161
lowerback -13.0634 1.91559 2.39756
upperback -7.27704 1.50597 1.89464
thorax -0.295916 0.39841 0.81193
lowerneck -11.0926 0.115555 -1.63737
upperneck 40.5668 -4.3629 1.75421
head 16.5403 -3.17092 -0.0549327
rclavicle 3.51725e-014 7.95139e-015
rhumerus -74.9066 40.6333 -121.971
rradius 50.3275
rwrist -44.2368
rhand 22.3833 -3.57542
rfingers 7.12502
rthumb 46.7485 -26.3517
lclavicle 3.51725e-014 7.95139e-015
lhumerus -61.5791 -18.7781 100.234
lradius 41.8354
lwrist 13.6605
lhand 25.5023 19.2773
lfingers 7.12502
lthumb 49.6219 40.6963
rfemur -29.3838 2.94534 35.3344
rtibia 27.0056
rfoot -42.3887 -31.5697
rtoes 42.518
lfemur -25.7364 31.8686 -24.0609
ltibia 56.3251
lfoot 37.865 36.8486
ltoes 24.0148
891
root 0.165841 16.9415 17.3358 -161.217 -33.1954 -177.107
lowerback -13.0685 1.95756 2.51766
upperback -7.28921 1.54778 1.85219
thorax -0.301385 0.414458 0.705736
lowerneck -11.1235 0.113101 -1.61792
upperneck 40.6498 -4.40424 1.78039
head 16.5954 -3.18524 -0.0571761
rclavicle 8.35517e-015 -1.59028e-014
rhumerus -74.7572 40.4332 -121.834
rradius 50.2675
rwrist -44.0601
rhand 22.4116 -3.45751
rfingers 7.12502
rthumb 46.7746 -26.2224
lclavicle 8.35517e-015 -1.59028e-014
lhumerus -61.6078 -18.8761 100.242
lradius 41.7862
lwrist 13.6771
lhand 25.428 19.4859
lfingers 7.12502
lthumb 49.5538 40.9398
rfemur -29.35 3.14776 35.3198
rtibia 27.0087
rfoot -42.5314 -31.7943
rtoes 42.3081
lfemur -25.6609 31.8917 -23.9729
ltibia 56.2971
lfoot 38.4423 36.5457
ltoes 22.7265
892
root 0.164436 16.9405 17.333 -161.254 -33.2604 -176.983
lowerback -13.2219 2.0987 2.71511
upperback -7.12195 1.71842 1.82476
thorax -0.0360654 0.50408 0.593137
lowerneck -11.6936 -0.0482288 -1.90375
upperneck 40.7603 -4.60266 1.96872
head 16.8211 -3.25877 0.0345398
rclavicle 8.2703e-014 -3.33958e-014
rhumerus -74.1488 40.6999 -121.387
rradius 50.2172
rwrist -44.3438
rhand 22.4926 -3.42399
rfingers 7.12502
rthumb 46.8497 -26.1561
lclavicle 8.2703e-014 -3.33958e-014
lhumerus -61.2555 -19.3057 100.367
lradius 41.7702
lwrist 13.7446
lhand 25.401 19.5914
lfingers 7.12502
lthumb 49.5291 41.058
rfemur -29.3731 3.03839 35.4705
rtibia 27.0101
rfoot -42.4362 -31.7804
rtoes 42.3096
lfemur -25.7079 31.8921 -23.8711
ltibia 56.303
lfoot 39.0726 35.8506
ltoes 21.2082
893
root 0.16199 16.9395 17.3325 -161.199 -33.2996 -177.062
lowerback -13.2881 2.1278 2.70602
upperback -7.04676 1.7628 1.79058
thorax 0.0795381 0.531379 0.570763
lowerneck -11.9886 -0.132066 -2.04221
upperneck 40.8227 -4.68965 2.01553
head 16.9396 -3.29662 0.0599157
rclavicle 3.2822e-014 1.07344e-014
rhumerus -73.768 40.852 -121.065
rradius 50.2206
rwrist -44.4904
rhand 22.8284 -3.71205
rfingers 7.12502
rthumb 47.1603 -26.3073
lclavicle 3.2822e-014 1.07344e-014
lhumerus -61.0647 -19.4321 100.374
lradius 41.7473
lwrist 13.7796
lhand 25.5298 19.5556
lfingers 7.12502
lthumb 49.6471 40.9617
rfemur -29.3675 2.87144 35.437
rtibia 26.9769
rfoot -42.4028 -31.6376
rtoes 42.5148
lfemur -25.7284 31.8753 -23.9706
ltibia 56.3004
lfoot 39.5372 35.3231
ltoes 20.5498
894
root 0.162586 16.9383 17.3303 -161.159 -33.3062 -177.138
lowerback -13.2556 2.11246 2.62457
upperback -7.09671 1.75081 1.77324
thorax 0.00771949 0.524608 0.595549
lowerneck -12.0337 -0.0990825 -2.14739
upperneck 40.9199 -4.67452 2.11934
head 17.0119 -3.29794 0.123779
rclavicle -9.27672e-014 -6.24184e-014
rhumerus -73.7938 40.7625 -121.022
rradius 50.272
rwrist -44.4926
rhand 23.0383 -3.87678
rfingers 7.12502
rthumb 47.3543 -26.3853
lclavicle -9.27672e-014 -6.24184e-014
lhumerus -61.0978 -19.3643 100.305
lradius 41.6765
lwrist 13.7035
lhand 25.6304 19.3767
lfingers 7.12502
lthumb 49.7393 40.7352
rfemur -29.3594 2.957 35.3479
rtibia 26.9594
rfoot -42.4402 -31.7267
rtoes 42.5549
lfemur -25.7102 31.8836 -24.035
ltibia 56.2872
lfoot 37.3469 36.5169
ltoes 27.6572
895
root 0.161106 16.9394 17.3252 -161.218 -33.3747 -177.017
lowerback -13.3484 2.10456 2.72939
upperback -7.08098 1.72049 1.81187
thorax 0.0753636 0.506779 0.575402
lowerneck -11.925 -0.0966604 -2.05662
upperneck 40.9115 -4.7067 2.09942
head 16.9774 -3.30539 0.0942617
rclavicle -4.29359e-014 7.95139e-016
rhumerus -73.7662 40.7406 -120.969
rradius 50.2693
rwrist -44.3923
rhand 23.1212 -3.93195
rfingers 7.12502
rthumb 47.4308 -26.406
lclavicle -4.29359e-014 7.95139e-016
lhumerus -60.9705 -19.3 100.253
lradius 41.5058
lwrist 13.6633
lhand 25.5301 19.2699
lfingers 7.12502
lthumb 49.6474 40.6758
rfemur -29.3455 2.73866 35.5355
rtibia 26.9573
rfoot -42.1414 -31.7669
rtoes 42.2026
lfemur -25.6756 31.8661 -23.8784
ltibia 56.2531
lfoot 36.7458 36.9211
ltoes 28.9984
896
root 0.157957 16.9421 17.321 -161.237 -33.4565 -176.969
lowerback -13.496 2.06142 2.76741
upperback -7.01253 1.65179 1.87057
thorax 0.224718 0.475169 0.610066
lowerneck -12.0313 -0.0679134 -2.11059
upperneck 40.9032 -4.58956 2.02262
head 16.9938 -3.2688 0.0895318
rclavicle -2.07631e-014 -1.82882e-014
rhumerus -73.6443 40.8119 -120.816
rradius 50.3026
rwrist -44.1894
rhand 23.0574 -4.07659
rfingers 7.12502
rthumb 47.3719 -26.5772
lclavicle -2.07631e-014 -1.82882e-014
lhumerus -60.7749 -19.1685 100.192
lradius 41.3973
lwrist 13.5788
lhand 25.5222 19.2581
lfingers 7.12502
lthumb 49.6401 40.6677
rfemur -29.3199 2.54574 35.6344
rtibia 26.9201
rfoot -42.0332 -31.7809
rtoes 42.0463
lfemur -25.6251 31.8344 -23.7932
ltibia 56.2147
lfoot 36.8579 37.0889
ltoes 27.5029
897
root 0.15404 16.9459 17.3173 -161.206 -33.4918 -176.99
lowerback -13.5459 2.06011 2.78356
upperback -7.03063 1.64354 1.85274
thorax 0.233238 0.468894 0.582349
lowerneck -12.0253 -0.053106 -2.12796
upperneck 40.9487 -4.60638 2.09024
head 17.0215 -3.27322 0.118365
rclavicle -3.47805e-014 -2.74323e-014
rhumerus -73.7258 40.8139 -120.908
rradius 50.4008
rwrist -44.1862
rhand 23.0735 -4.27792
rfingers 7.12502
rthumb 47.3868 -26.7718
lclavicle -3.47805e-014 -2.74323e-014
lhumerus -60.7936 -19.1328 100.139
lradius 41.395
lwrist 13.4541
lhand 25.5912 19.2198
lfingers 7.12502
lthumb 49.7034 40.5969
rfemur -29.3013 2.57436 35.5787
rtibia 26.871
rfoot -42.1579 -31.7803
rtoes 42.0579
lfemur -25.5981 31.8645 -23.8109
ltibia 56.1716
lfoot 37.9659 36.9443
ltoes 23.6248
898
root 0.151933 16.9436 17.3157 -161.228 -33.5263 -176.879
lowerback -13.5999 2.06877 2.89709
upperback -7.08001 1.63073 1.86641
thorax 0.212796 0.455126 0.532054
lowerneck -11.8844 -0.03387 -2.08209
upperneck 40.9716 -4.65507 2.16508
head 17.002 -3.28668 0.135429
rclavicle 5.0263e-014 -5.96354e-015
rhumerus -73.9485 40.8611 -121.159
rradius 50.423
rwrist -44.1432
rhand 23.3138 -4.34789
rfingers 7.12502
rthumb 47.6087 -26.7412
lclavicle 5.0263e-014 -5.96354e-015
lhumerus -60.9236 -19.1423 100.13
lradius 41.4749
lwrist 13.3947
lhand 25.6398 19.2264
lfingers 7.12502
lthumb 49.7479 40.5805
rfemur -29.3222 2.4182 35.7207
rtibia 26.8575
rfoot -42.1153 -31.5587
rtoes 42.0941
lfemur -25.6159 31.8831 -23.7138
ltibia 56.1499
lfoot 35.8209 38.0194
ltoes 29.7528
899
root 0.151535 16.944 17.3138 -161.189 -33.5134 -176.969
lowerback -13.5662 2.00333 2.81722
upperback -7.14898 1.55076 1.84864
thorax 0.119854 0.412772 0.5462
lowerneck -11.6696 0.0378529 -1.92945
upperneck 40.9606 -4.59721 2.11207
head 16.9328 -3.25944 0.0963621
rclavicle 1.00208e-013 7.99114e-014
rhumerus -74.146 40.7041 -121.318
rradius 50.3852
rwrist -43.8717
rhand 23.4819 -4.3098
rfingers 7.12502
rthumb 47.7638 -26.6321
lclavicle 1.00208e-013 7.99114e-014
lhumerus -61.1326 -19.0498 100.096
lradius 41.5818
lwrist 13.4306
lhand 25.5595 19.3237
lfingers 7.12502
lthumb 49.6743 40.7157
rfemur -29.3061 2.22445 35.7185
rtibia 26.8512
rfoot -41.7845 -31.6468
rtoes 41.6629
lfemur -25.5595 31.8595 -23.7821
ltibia 56.1165
lfoot 34.9115 38.5458
ltoes 32.0869
900
root 0.152545 16.9459 17.3134 -161.116 -33.4568 -177.137
lowerback -13.4258 1.9616 2.69403
upperback -7.27573 1.51289 1.75527
thorax -0.0892022 0.389323 0.509185
lowerneck -11.3803 0.0949941 -1.66009
upperneck 40.9462 -4.58507 2.01054
head 16.8403 -3.24336 0.00756948
rclavicle -3.57502e-015 2.90226e-014
rhumerus -74.4278 40.2887 -121.547
rradius 50.3783
rwrist -43.5783
rhand 23.3133 -4.17386
rfingers 7.12502
rthumb 47.6082 -26.5674
lclavicle -3.57502e-015 2.90226e-014
lhumerus -61.4337 -19.0677 100.064
lradius 41.6842
lwrist 13.5245
lhand 25.4463 19.3579
lfingers 7.12502
lthumb 49.5706 40.8032
rfemur -29.3097 2.40233 35.521
rtibia 26.8839
rfoot -41.8839 -31.8516
rtoes 41.684
lfemur -25.509 31.8457 -23.9429
ltibia 56.0736
lfoot 35.5508 38.4584
ltoes 29.7752
901
root 0.151764 16.9464 17.3124 -161.115 -33.4871 -177.072
lowerback -13.4693 1.99492 2.76593
upperback -7.28117 1.54432 1.75569
thorax -0.0695207 0.402028 0.474361
lowerneck -11.3194 0.0549265 -1.60751
upperneck 40.8959 -4.64035 1.97567
head 16.7962 -3.26171 -0.0241862
rclavicle 1.45486e-014 -1.03368e-014
rhumerus -74.3548 40.2655 -121.45
rradius 50.4268
rwrist -43.8392
rhand 23.2353 -4.2938
rfingers 7.12502
rthumb 47.5363 -26.7201
lclavicle 1.45486e-014 -1.03368e-014
lhumerus -61.486 -19.1847 100.163
lradius 41.7733
lwrist 13.473
lhand 25.4038 19.345
lfingers 7.12502
lthumb 49.5316 40.8102
rfemur -29.3725 2.31131 35.6068
rtibia 26.9277
rfoot -41.731 -31.9008
rtoes 41.7048
lfemur -25.5548 31.7926 -23.9061
ltibia 56.064
lfoot 37.4344 37.9459
ltoes 23.1057
